<mxfile host="app.diagrams.net" modified="2022-03-21T09:29:25.388Z" agent="5.0 (Windows NT 10.0; Win64; x64) AppleWebKit/537.36 (KHTML, like Gecko) Chrome/99.0.4844.74 Safari/537.36" etag="Dx-_piJ1SnUkWhJgaMQX" version="17.1.3" type="github">
  <diagram id="W-9ImOpMtnj_Iprmmz2A" name="Page-1">
    <mxGraphModel dx="1185" dy="1735" grid="1" gridSize="10" guides="1" tooltips="1" connect="1" arrows="1" fold="1" page="1" pageScale="1" pageWidth="850" pageHeight="1100" math="0" shadow="0">
      <root>
        <mxCell id="0" />
        <mxCell id="1" parent="0" />
        <mxCell id="btSTc1lj03Zl4ieGrQy4-14" value="Branch" style="rounded=0;whiteSpace=wrap;html=1;fillColor=none;align=left;verticalAlign=top;" parent="1" vertex="1">
          <mxGeometry x="70" y="240" width="230" height="170" as="geometry" />
        </mxCell>
        <mxCell id="btSTc1lj03Zl4ieGrQy4-21" style="edgeStyle=orthogonalEdgeStyle;rounded=0;orthogonalLoop=1;jettySize=auto;html=1;exitX=1;exitY=0.75;exitDx=0;exitDy=0;" parent="1" source="btSTc1lj03Zl4ieGrQy4-14" target="btSTc1lj03Zl4ieGrQy4-19" edge="1">
          <mxGeometry relative="1" as="geometry" />
        </mxCell>
        <mxCell id="IpUflZCy7PfABAmhOsxZ-6" style="edgeStyle=orthogonalEdgeStyle;rounded=0;orthogonalLoop=1;jettySize=auto;html=1;entryX=0;entryY=0.5;entryDx=0;entryDy=0;" edge="1" parent="1" source="btSTc1lj03Zl4ieGrQy4-17" target="btSTc1lj03Zl4ieGrQy4-39">
          <mxGeometry relative="1" as="geometry">
            <Array as="points">
              <mxPoint x="130" y="255" />
            </Array>
          </mxGeometry>
        </mxCell>
        <mxCell id="IpUflZCy7PfABAmhOsxZ-11" style="edgeStyle=orthogonalEdgeStyle;rounded=0;orthogonalLoop=1;jettySize=auto;html=1;" edge="1" parent="1" source="btSTc1lj03Zl4ieGrQy4-17" target="btSTc1lj03Zl4ieGrQy4-31">
          <mxGeometry relative="1" as="geometry">
            <Array as="points">
              <mxPoint x="440" y="310" />
            </Array>
          </mxGeometry>
        </mxCell>
        <mxCell id="btSTc1lj03Zl4ieGrQy4-17" value="Client" style="sketch=0;outlineConnect=0;fontColor=#232F3E;gradientColor=none;strokeColor=#232F3E;fillColor=#ffffff;dashed=0;verticalLabelPosition=bottom;verticalAlign=top;align=center;html=1;fontSize=12;fontStyle=0;aspect=fixed;shape=mxgraph.aws4.resourceIcon;resIcon=mxgraph.aws4.client;" parent="1" vertex="1">
          <mxGeometry x="100" y="298" width="60" height="60" as="geometry" />
        </mxCell>
        <mxCell id="btSTc1lj03Zl4ieGrQy4-18" value="" style="ellipse;shape=cloud;whiteSpace=wrap;html=1;fillColor=none;" parent="1" vertex="1">
          <mxGeometry x="150" y="-90" width="620" height="340" as="geometry" />
        </mxCell>
        <mxCell id="btSTc1lj03Zl4ieGrQy4-37" style="edgeStyle=orthogonalEdgeStyle;rounded=0;orthogonalLoop=1;jettySize=auto;html=1;entryX=0.725;entryY=0.893;entryDx=0;entryDy=0;entryPerimeter=0;" parent="1" source="btSTc1lj03Zl4ieGrQy4-19" target="btSTc1lj03Zl4ieGrQy4-18" edge="1">
          <mxGeometry relative="1" as="geometry">
            <Array as="points">
              <mxPoint x="600" y="368" />
            </Array>
          </mxGeometry>
        </mxCell>
        <mxCell id="btSTc1lj03Zl4ieGrQy4-19" value="" style="sketch=0;pointerEvents=1;shadow=0;dashed=0;html=1;strokeColor=none;fillColor=#505050;labelPosition=center;verticalLabelPosition=bottom;verticalAlign=top;outlineConnect=0;align=center;shape=mxgraph.office.servers.datacenter;" parent="1" vertex="1">
          <mxGeometry x="497" y="316" width="143" height="103" as="geometry" />
        </mxCell>
        <mxCell id="btSTc1lj03Zl4ieGrQy4-27" value="" style="rounded=1;whiteSpace=wrap;html=1;fillColor=none;" parent="1" vertex="1">
          <mxGeometry x="340" y="65.1" width="170" height="114.9" as="geometry" />
        </mxCell>
        <mxCell id="btSTc1lj03Zl4ieGrQy4-28" value="" style="sketch=0;aspect=fixed;html=1;points=[];align=center;image;fontSize=12;image=img/lib/mscae/Kubernetes.svg;fillColor=none;" parent="1" vertex="1">
          <mxGeometry x="330" y="94.48" width="30" height="28.8" as="geometry" />
        </mxCell>
        <mxCell id="btSTc1lj03Zl4ieGrQy4-29" value="" style="rounded=1;whiteSpace=wrap;html=1;fillColor=none;" parent="1" vertex="1">
          <mxGeometry x="520" y="50" width="130" height="120.7" as="geometry" />
        </mxCell>
        <mxCell id="btSTc1lj03Zl4ieGrQy4-30" value="" style="sketch=0;aspect=fixed;html=1;points=[];align=center;image;fontSize=12;image=img/lib/mscae/Kubernetes.svg;fillColor=none;" parent="1" vertex="1">
          <mxGeometry x="640" y="116.4" width="30" height="28.8" as="geometry" />
        </mxCell>
        <mxCell id="IpUflZCy7PfABAmhOsxZ-12" style="edgeStyle=orthogonalEdgeStyle;rounded=0;orthogonalLoop=1;jettySize=auto;html=1;exitX=0;exitY=0.5;exitDx=0;exitDy=0;entryX=0.5;entryY=1;entryDx=0;entryDy=0;" edge="1" parent="1" source="btSTc1lj03Zl4ieGrQy4-31" target="btSTc1lj03Zl4ieGrQy4-42">
          <mxGeometry relative="1" as="geometry" />
        </mxCell>
        <mxCell id="btSTc1lj03Zl4ieGrQy4-31" value="ingress-gateway" style="rounded=0;whiteSpace=wrap;html=1;fillColor=none;" parent="1" vertex="1">
          <mxGeometry x="425" y="150.2" width="51" height="29.8" as="geometry" />
        </mxCell>
        <mxCell id="btSTc1lj03Zl4ieGrQy4-32" value="ingress-gateway" style="rounded=0;whiteSpace=wrap;html=1;fillColor=none;" parent="1" vertex="1">
          <mxGeometry x="570" y="140.9" width="51" height="29.8" as="geometry" />
        </mxCell>
        <mxCell id="btSTc1lj03Zl4ieGrQy4-33" value="egress-gateway" style="rounded=0;whiteSpace=wrap;html=1;fillColor=none;" parent="1" vertex="1">
          <mxGeometry x="409.75" y="65.1" width="51" height="29.8" as="geometry" />
        </mxCell>
        <mxCell id="btSTc1lj03Zl4ieGrQy4-34" value="egress-gateway" style="rounded=0;whiteSpace=wrap;html=1;fillColor=none;" parent="1" vertex="1">
          <mxGeometry x="559.5" y="50.00000000000001" width="51" height="29.8" as="geometry" />
        </mxCell>
        <mxCell id="btSTc1lj03Zl4ieGrQy4-36" value="1. Envoy runs as a forward proxy in branch&lt;br&gt;2. Envoy runs as ingress gateway&lt;br&gt;3. Envoy runs as egress gateway&lt;br&gt;4. Envoy runs as pod sidecar" style="text;html=1;align=left;verticalAlign=middle;resizable=0;points=[];autosize=1;strokeColor=none;fillColor=none;" parent="1" vertex="1">
          <mxGeometry x="110" y="510" width="240" height="60" as="geometry" />
        </mxCell>
        <mxCell id="btSTc1lj03Zl4ieGrQy4-38" value="app4" style="rounded=0;whiteSpace=wrap;html=1;fillColor=none;" parent="1" vertex="1">
          <mxGeometry x="530" y="97.43" width="40" height="25.85" as="geometry" />
        </mxCell>
        <mxCell id="IpUflZCy7PfABAmhOsxZ-4" style="edgeStyle=orthogonalEdgeStyle;rounded=0;orthogonalLoop=1;jettySize=auto;html=1;entryX=0.5;entryY=1;entryDx=0;entryDy=0;" edge="1" parent="1" source="btSTc1lj03Zl4ieGrQy4-39" target="IpUflZCy7PfABAmhOsxZ-1">
          <mxGeometry relative="1" as="geometry">
            <Array as="points">
              <mxPoint x="240" y="210" />
              <mxPoint x="290" y="210" />
            </Array>
          </mxGeometry>
        </mxCell>
        <mxCell id="btSTc1lj03Zl4ieGrQy4-39" value="forward proxy" style="rounded=0;whiteSpace=wrap;html=1;fillColor=none;" parent="1" vertex="1">
          <mxGeometry x="190" y="240" width="100" height="30" as="geometry" />
        </mxCell>
        <mxCell id="btSTc1lj03Zl4ieGrQy4-41" value="sidecar" style="rounded=0;whiteSpace=wrap;html=1;fillColor=none;" parent="1" vertex="1">
          <mxGeometry x="570" y="97.43" width="50" height="25.85" as="geometry" />
        </mxCell>
        <mxCell id="btSTc1lj03Zl4ieGrQy4-42" value="app2" style="rounded=0;whiteSpace=wrap;html=1;fillColor=none;" parent="1" vertex="1">
          <mxGeometry x="369.75" y="104.35000000000001" width="40" height="25.85" as="geometry" />
        </mxCell>
        <mxCell id="IpUflZCy7PfABAmhOsxZ-1" value="app1" style="rounded=0;whiteSpace=wrap;html=1;fillColor=none;" vertex="1" parent="1">
          <mxGeometry x="270" y="39.250000000000014" width="40" height="25.85" as="geometry" />
        </mxCell>
        <mxCell id="IpUflZCy7PfABAmhOsxZ-2" value="app3" style="rounded=0;whiteSpace=wrap;html=1;fillColor=none;" vertex="1" parent="1">
          <mxGeometry x="415.25" y="10.000000000000007" width="40" height="25.85" as="geometry" />
        </mxCell>
        <mxCell id="IpUflZCy7PfABAmhOsxZ-7" value="1" style="ellipse;whiteSpace=wrap;html=1;aspect=fixed;strokeWidth=2;fontFamily=Tahoma;spacingBottom=4;spacingRight=2;strokeColor=#d3d3d3;" vertex="1" parent="1">
          <mxGeometry x="150" y="250" width="20" height="20" as="geometry" />
        </mxCell>
        <mxCell id="IpUflZCy7PfABAmhOsxZ-10" value="1" style="ellipse;whiteSpace=wrap;html=1;aspect=fixed;strokeWidth=2;fontFamily=Tahoma;spacingBottom=4;spacingRight=2;strokeColor=#d3d3d3;" vertex="1" parent="1">
          <mxGeometry x="280" y="145" width="20" height="20" as="geometry" />
        </mxCell>
        <mxCell id="IpUflZCy7PfABAmhOsxZ-13" value="2" style="ellipse;whiteSpace=wrap;html=1;aspect=fixed;strokeWidth=2;fontFamily=Tahoma;spacingBottom=4;spacingRight=2;strokeColor=#d3d3d3;" vertex="1" parent="1">
          <mxGeometry x="340" y="298" width="20" height="20" as="geometry" />
        </mxCell>
        <mxCell id="IpUflZCy7PfABAmhOsxZ-15" value="2" style="ellipse;whiteSpace=wrap;html=1;aspect=fixed;strokeWidth=2;fontFamily=Tahoma;spacingBottom=4;spacingRight=2;strokeColor=#d3d3d3;" vertex="1" parent="1">
          <mxGeometry x="389.75" y="150.2" width="20" height="20" as="geometry" />
        </mxCell>
      </root>
    </mxGraphModel>
  </diagram>
</mxfile>
